<svg width="1256" height="145" viewBox="0 0 1256 145" fill="none" xmlns="http://www.w3.org/2000/svg">
<path d="M0.473438 141V136.6L4.47344 135.4C7.00677 134.6 8.7401 133.333 9.67344 131.6C10.6068 129.733 11.0734 127.333 11.0734 124.4V25.4C11.0734 22.7333 10.7401 20.6 10.0734 19C9.40677 17.2667 7.7401 15.9333 5.07344 15L0.473438 13.2V8.8H38.6734L76.2734 106.6L111.673 8.8H150.673V13.2L147.473 14.2C144.94 15 143.207 16.2667 142.273 18C141.34 19.6 140.873 21.7333 140.873 24.4C140.74 32.1333 140.673 39.8667 140.673 47.6C140.673 55.2 140.673 62.9333 140.673 70.8V79C140.673 86.7333 140.673 94.4667 140.673 102.2C140.673 109.933 140.74 117.6 140.873 125.2C140.873 128 141.207 130.133 141.873 131.6C142.54 133.067 144.14 134.267 146.673 135.2L150.673 136.6V141H102.073V136.6L106.473 135.2C109.007 134.267 110.54 133.067 111.073 131.6C111.74 130 112.073 127.867 112.073 125.2V81.8L112.473 28.2L71.6734 141H60.4734L17.4734 29.4L18.2734 75V124.6C18.2734 127.533 18.6734 129.867 19.4734 131.6C20.2734 133.333 21.9401 134.533 24.4734 135.2L28.4734 136.6V141H0.473438ZM182.658 31C178.258 31 174.524 29.6 171.458 26.8C168.391 24 166.858 20.4667 166.858 16.2C166.858 11.8 168.391 8.26666 171.458 5.59999C174.524 2.8 178.258 1.4 182.658 1.4C187.058 1.4 190.791 2.8 193.858 5.59999C196.924 8.26666 198.458 11.8 198.458 16.2C198.458 20.4667 196.924 24 193.858 26.8C190.791 29.6 187.058 31 182.658 31ZM159.658 141V137.2L162.658 136.4C165.324 135.6 167.124 134.4 168.058 132.8C168.991 131.2 169.524 129.067 169.658 126.4V89.6C169.658 85.4667 169.658 81.6667 169.658 78.2C169.658 74.6 169.591 70.9333 169.458 67.2C169.458 64.5333 168.924 62.4667 167.858 61C166.924 59.4 165.124 58.3333 162.458 57.8L159.658 57.2V53.6L194.658 42L197.058 44.2L196.458 72.6V126.6C196.458 129.267 196.924 131.4 197.858 133C198.924 134.6 200.724 135.8 203.258 136.6L205.458 137.2V141H159.658ZM214.341 141V137.2L217.541 136.4C221.941 135.067 224.141 131.8 224.141 126.6V67.6C224.007 64.8 223.541 62.6667 222.741 61.2C221.941 59.6 220.207 58.5333 217.541 58L214.341 57.2V53.6L246.741 42L249.141 44.2L250.541 56.6C255.341 52.3333 260.674 48.8667 266.541 46.2C272.541 43.4 278.407 42 284.141 42C292.941 42 299.674 44.4 304.341 49.2C309.141 54 311.541 61.3333 311.541 71.2V126.8C311.541 132 313.941 135.267 318.741 136.6L320.941 137.2V141H274.941V137.2L277.941 136.4C282.341 134.933 284.541 131.667 284.541 126.6V67.2C284.541 62.5333 283.541 59.1333 281.541 57C279.541 54.8667 276.207 53.8 271.541 53.8C265.007 53.8 258.207 56.6667 251.141 62.4V126.8C251.141 132 253.474 135.267 258.141 136.6L260.141 137.2V141H214.341ZM352.384 31C347.984 31 344.251 29.6 341.184 26.8C338.118 24 336.584 20.4667 336.584 16.2C336.584 11.8 338.118 8.26666 341.184 5.59999C344.251 2.8 347.984 1.4 352.384 1.4C356.784 1.4 360.518 2.8 363.584 5.59999C366.651 8.26666 368.184 11.8 368.184 16.2C368.184 20.4667 366.651 24 363.584 26.8C360.518 29.6 356.784 31 352.384 31ZM329.384 141V137.2L332.384 136.4C335.051 135.6 336.851 134.4 337.784 132.8C338.718 131.2 339.251 129.067 339.384 126.4V89.6C339.384 85.4667 339.384 81.6667 339.384 78.2C339.384 74.6 339.318 70.9333 339.184 67.2C339.184 64.5333 338.651 62.4667 337.584 61C336.651 59.4 334.851 58.3333 332.184 57.8L329.384 57.2V53.6L364.384 42L366.784 44.2L366.184 72.6V126.6C366.184 129.267 366.651 131.4 367.584 133C368.651 134.6 370.451 135.8 372.984 136.6L375.184 137.2V141H329.384ZM384.067 141V137L388.467 135.8C390.601 135.133 392.001 134.2 392.667 133C393.334 131.667 393.734 129.933 393.867 127.8V88.2C393.867 83.8 393.867 80.0667 393.867 77C393.867 73.9333 393.801 70.3333 393.667 66.2C393.667 63.9333 393.334 62.2 392.667 61C392.001 59.6667 390.534 58.7333 388.267 58.2L384.067 57.2V53.6L416.467 42L418.867 44.2L420.267 57.6C424.934 53.3333 430.134 49.6667 435.867 46.6C441.601 43.5333 447.467 42 453.467 42C460.134 42 465.334 43.3333 469.067 46C472.801 48.6667 475.667 52.7333 477.667 58.2C482.734 53.1333 488.334 49.2 494.467 46.4C500.601 43.4667 506.667 42 512.667 42C521.734 42 528.534 44.2667 533.067 48.8C537.601 53.3333 539.867 60.4667 539.867 70.2V128C539.867 132.267 541.734 134.933 545.467 136L549.267 137V141H504.267V137L507.867 136C511.467 134.8 513.267 132.067 513.267 127.8V69.2C513.267 63.4667 512.201 59.6 510.067 57.6C508.067 55.4667 504.734 54.4 500.067 54.4C496.467 54.4 493.067 55.1333 489.867 56.6C486.667 58.0667 483.134 60.3333 479.267 63.4C480.067 67.4 480.467 72 480.467 77.2V128C480.601 130.267 481.001 132.067 481.667 133.4C482.467 134.6 483.934 135.467 486.067 136L489.467 137V141H444.267V137L448.467 135.8C450.601 135.133 452.001 134.2 452.667 133C453.467 131.667 453.867 129.933 453.867 127.8V69.4C453.867 63.9333 452.867 60.0667 450.867 57.8C448.867 55.5333 445.467 54.4 440.667 54.4C434.534 54.4 427.934 57.3333 420.867 63.2V128C420.867 132.4 422.734 135.067 426.467 136L429.867 137V141H384.067ZM585.528 143.8C577.928 143.8 571.461 141.667 566.128 137.4C560.928 133 558.328 126.733 558.328 118.6C558.328 112.2 561.395 106.333 567.528 101C573.795 95.5333 583.595 91.5333 596.928 89C599.195 88.4667 601.795 88 604.728 87.6C607.795 87.0667 610.795 86.5333 613.728 86V71.8C613.728 62.7333 612.595 56.4667 610.328 53C608.061 49.5333 604.461 47.8 599.528 47.8H598.928C595.861 47.8 593.395 48.8 591.528 50.8C589.795 52.6667 588.661 55.8 588.128 60.2L587.528 62.8C587.128 68.1333 585.728 72.0667 583.328 74.6C580.928 77 577.928 78.2 574.328 78.2C570.995 78.2 568.195 77.2 565.928 75.2C563.795 73.0667 562.728 70.3333 562.728 67C562.728 61.5333 564.595 56.9333 568.328 53.2C572.061 49.4667 576.995 46.6667 583.128 44.8C589.395 42.9333 596.128 42 603.328 42C615.195 42 624.261 44.8667 630.528 50.6C636.795 56.3333 639.928 65.6667 639.928 78.6V123.2C639.928 128.933 642.661 131.8 648.128 131.8H652.728L654.728 134C652.328 137.067 649.661 139.4 646.728 141C643.795 142.733 639.795 143.6 634.728 143.6C628.995 143.6 624.395 142.267 620.928 139.6C617.595 136.8 615.395 133.133 614.328 128.6C610.061 133.133 605.861 136.8 601.728 139.6C597.595 142.4 592.195 143.8 585.528 143.8ZM597.128 131C599.795 131 602.328 130.4 604.728 129.2C607.128 128 610.128 126 613.728 123.2V91.2C610.261 91.7333 606.728 92.4 603.128 93.2C597.395 94.5333 592.728 97 589.128 100.6C585.661 104.2 583.928 109.067 583.928 115.2C583.928 120.533 585.128 124.533 587.528 127.2C590.061 129.733 593.261 131 597.128 131ZM659.663 141V137.2L662.663 136.4C667.063 134.933 669.263 131.6 669.263 126.4C669.263 121.867 669.263 117.333 669.263 112.8C669.396 108.133 669.463 103.533 669.463 99V23C669.463 20.2 668.996 18.1333 668.063 16.8C667.129 15.3333 665.329 14.2667 662.663 13.6L659.663 12.8V8.99999L694.663 0.599996L697.263 2.4L696.463 30.6V126.4C696.596 129.067 697.129 131.267 698.063 133C699.129 134.6 700.929 135.733 703.463 136.4L706.263 137.2V141H659.663ZM782.941 144.4C769.341 144.4 757.407 141.533 747.141 135.8C736.874 130.067 728.807 122 722.941 111.6C717.207 101.067 714.341 88.7333 714.341 74.6C714.341 60.7333 717.141 48.6 722.741 38.2C728.474 27.8 736.741 19.7333 747.541 14C758.341 8.13333 771.274 5.2 786.341 5.2C793.541 5.2 800.207 5.99999 806.341 7.59999C812.607 9.19999 818.474 11.5333 823.941 14.6L824.741 43.2H819.341L809.341 23C807.741 19.8 806.207 17.4667 804.741 16C803.274 14.5333 801.341 13.4667 798.941 12.8C797.207 12.1333 795.541 11.7333 793.941 11.6C792.341 11.3333 790.274 11.2 787.741 11.2C779.341 11.2 771.941 13.4 765.541 17.8C759.141 22.0667 754.141 28.8667 750.541 38.2C747.074 47.5333 745.341 59.6667 745.341 74.6C745.341 97.1333 749.007 113.467 756.341 123.6C763.807 133.6 773.741 138.6 786.141 138.6C789.074 138.6 791.607 138.2 793.741 137.4C796.274 137 798.007 136 798.941 134.4C799.874 132.667 800.341 130.533 800.341 128C800.341 122.533 800.274 116.6 800.141 110.2C800.141 103.667 800.141 97.7333 800.141 92.4C800.141 87.2 797.407 84 791.941 82.8L782.941 80.8V76.6H838.141V80.8L835.741 81.4C833.207 82.2 831.274 83.4 829.941 85C828.607 86.4667 827.941 88.5333 827.941 91.2C827.941 96.5333 827.874 102 827.741 107.6C827.741 113.067 827.741 118.6 827.741 124.2V132.8C820.807 136.533 813.741 139.4 806.541 141.4C799.474 143.4 791.607 144.4 782.941 144.4ZM895.395 143.8C885.529 143.8 876.862 141.733 869.395 137.6C862.062 133.467 856.329 127.6 852.195 120C848.195 112.4 846.195 103.333 846.195 92.8C846.195 82.2667 848.329 73.2 852.595 65.6C856.995 58 862.862 52.2 870.195 48.2C877.662 44.0667 886.062 42 895.395 42C904.729 42 913.062 44.0667 920.395 48.2C927.862 52.2 933.729 58 937.995 65.6C942.395 73.0667 944.595 82.1333 944.595 92.8C944.595 103.333 942.529 112.467 938.395 120.2C934.395 127.8 928.729 133.667 921.395 137.8C914.062 141.8 905.395 143.8 895.395 143.8ZM895.395 138.2C900.195 138.2 904.062 136.933 906.995 134.4C910.062 131.733 912.262 127.133 913.595 120.6C914.929 114.067 915.595 104.933 915.595 93.2C915.595 81.3333 914.929 72.1333 913.595 65.6C912.262 58.9333 910.062 54.3333 906.995 51.8C904.062 49.1333 900.195 47.8 895.395 47.8C890.595 47.8 886.729 49.1333 883.795 51.8C880.862 54.3333 878.662 58.9333 877.195 65.6C875.862 72.1333 875.195 81.3333 875.195 93.2C875.195 104.933 875.862 114.067 877.195 120.6C878.662 127.133 880.862 131.733 883.795 134.4C886.729 136.933 890.595 138.2 895.395 138.2ZM1004.77 143.8C994.904 143.8 986.237 141.733 978.77 137.6C971.437 133.467 965.704 127.6 961.57 120C957.57 112.4 955.57 103.333 955.57 92.8C955.57 82.2667 957.704 73.2 961.97 65.6C966.37 58 972.237 52.2 979.57 48.2C987.037 44.0667 995.437 42 1004.77 42C1014.1 42 1022.44 44.0667 1029.77 48.2C1037.24 52.2 1043.1 58 1047.37 65.6C1051.77 73.0667 1053.97 82.1333 1053.97 92.8C1053.97 103.333 1051.9 112.467 1047.77 120.2C1043.77 127.8 1038.1 133.667 1030.77 137.8C1023.44 141.8 1014.77 143.8 1004.77 143.8ZM1004.77 138.2C1009.57 138.2 1013.44 136.933 1016.37 134.4C1019.44 131.733 1021.64 127.133 1022.97 120.6C1024.3 114.067 1024.97 104.933 1024.97 93.2C1024.97 81.3333 1024.3 72.1333 1022.97 65.6C1021.64 58.9333 1019.44 54.3333 1016.37 51.8C1013.44 49.1333 1009.57 47.8 1004.77 47.8C999.97 47.8 996.104 49.1333 993.17 51.8C990.237 54.3333 988.037 58.9333 986.57 65.6C985.237 72.1333 984.57 81.3333 984.57 93.2C984.57 104.933 985.237 114.067 986.57 120.6C988.037 127.133 990.237 131.733 993.17 134.4C996.104 136.933 999.97 138.2 1004.77 138.2ZM1106.15 143.8C1098.28 143.8 1091.21 142.067 1084.95 138.6C1078.68 135 1073.75 129.533 1070.15 122.2C1066.68 114.733 1064.95 105.267 1064.95 93.8C1064.95 82.3333 1066.95 72.8 1070.95 65.2C1074.95 57.4667 1080.28 51.6667 1086.95 47.8C1093.61 43.9333 1100.95 42 1108.95 42C1113.75 42 1118.35 42.6 1122.75 43.8C1127.15 44.8667 1131.01 46.5333 1134.35 48.8V22.8C1134.35 20 1133.88 18 1132.95 16.8C1132.15 15.4667 1130.41 14.4667 1127.75 13.8L1123.75 13V9.19999L1158.55 0.599996L1161.15 2.4L1160.35 30.6V126.8C1160.35 129.333 1160.81 131.467 1161.75 133.2C1162.68 134.8 1164.35 135.933 1166.75 136.6L1168.95 137.2V141L1135.75 143.2L1133.95 134.8C1130.35 137.6 1126.21 139.8 1121.55 141.4C1116.88 143 1111.75 143.8 1106.15 143.8ZM1117.15 134.6C1122.88 134.6 1128.28 132.733 1133.35 129V54.6C1128.41 51.5333 1123.08 50 1117.35 50C1110.81 50 1105.21 53.4667 1100.55 60.4C1095.88 67.2 1093.55 78.2 1093.55 93.4C1093.55 108.6 1095.75 119.267 1100.15 125.4C1104.55 131.533 1110.21 134.6 1117.15 134.6ZM1212.61 143.8C1206.21 143.8 1200.41 143.067 1195.21 141.6C1190.15 140.267 1185.28 138.333 1180.61 135.8V112.2H1186.01L1192.01 123.6C1194.55 128.533 1197.41 132.2 1200.61 134.6C1203.95 137 1208.15 138.2 1213.21 138.2C1219.48 138.2 1224.48 136.867 1228.21 134.2C1231.95 131.4 1233.81 127.667 1233.81 123C1233.81 118.733 1232.41 115.267 1229.61 112.6C1226.81 109.933 1221.81 107.467 1214.61 105.2L1205.81 102.4C1197.95 100 1191.68 96.4 1187.01 91.6C1182.48 86.6667 1180.21 80.5333 1180.21 73.2C1180.21 67.4667 1181.75 62.2667 1184.81 57.6C1187.88 52.8 1192.35 49 1198.21 46.2C1204.08 43.4 1211.21 42 1219.61 42C1225.08 42 1230.08 42.6667 1234.61 44C1239.28 45.2 1243.81 46.9333 1248.21 49.2L1247.01 70.6H1241.81L1235.61 59.2C1233.48 54.9333 1231.28 52 1229.01 50.4C1226.88 48.6667 1223.55 47.8 1219.01 47.8C1214.21 47.8 1209.95 49.0667 1206.21 51.6C1202.61 54 1200.81 57.4 1200.81 61.8C1200.81 65.9333 1202.35 69.3333 1205.41 72C1208.48 74.5333 1213.41 76.9333 1220.21 79.2L1228.81 81.8C1238.55 84.8667 1245.48 88.9333 1249.61 94C1253.75 99.0667 1255.81 105.133 1255.81 112.2C1255.81 121.667 1252.01 129.333 1244.41 135.2C1236.95 140.933 1226.35 143.8 1212.61 143.8Z" fill="#2E2A27"/>
</svg>
